# xmcd
# 
# Track frame offsets:
#     187
#     21775
#     39637
#     55225
#     73750
#     98975
#     121012
# 
# Disc length: 1965
# 
# Revision: 0
# Processed by: cddbd v1.5.2PL0 Copyright (c) Steve Scherf et al.
# Submitted via: fre:ac v1.0.17
# 
DISCID=5907ab07
DTITLE=Victor Feldman - Fiesta
DYEAR=1984
DGENRE=Jazz
TTITLE0=Fiesta
TTITLE1=Elusive Spirit
TTITLE2=With Your Love
TTITLE3=Forever
TTITLE4=Summer Games
TTITLE5=Amigos
TTITLE6=Viva Zapata!
EXTD=
EXTT0=
EXTT1=
EXTT2=
EXTT3=
EXTT4=
EXTT5=
EXTT6=
PLAYORDER=
